<mxfile host="app.diagrams.net" agent="Mozilla/5.0 (Macintosh; Intel Mac OS X 10_15_7) AppleWebKit/537.36 (KHTML, like Gecko) Chrome/126.0.0.0 Safari/537.36" version="24.7.6">
  <diagram name="Page-1" id="74e2e168-ea6b-b213-b513-2b3c1d86103e">
    <mxGraphModel dx="1272" dy="808" grid="0" gridSize="10" guides="1" tooltips="1" connect="1" arrows="1" fold="1" page="0" pageScale="1" pageWidth="1100" pageHeight="850" background="none" math="0" shadow="0">
      <root>
        <mxCell id="0" />
        <mxCell id="1" parent="0" />
        <mxCell id="77e6c97f196da883-1" value="账密管理流程" style="swimlane;html=1;childLayout=stackLayout;startSize=20;rounded=0;shadow=0;labelBackgroundColor=none;strokeWidth=1;fontFamily=Verdana;fontSize=16;align=center;fillColor=#dae8fc;strokeColor=#6c8ebf;" parent="1" vertex="1">
          <mxGeometry x="70" y="27" width="960" height="327" as="geometry">
            <mxRectangle x="70" y="40" width="52" height="22" as="alternateBounds" />
          </mxGeometry>
        </mxCell>
        <mxCell id="77e6c97f196da883-2" value="DBA" style="swimlane;html=1;startSize=20;dashed=1;swimlaneFillColor=#FFFFCC;fillColor=#dae8fc;strokeColor=#6c8ebf;fontSize=16;" parent="77e6c97f196da883-1" vertex="1">
          <mxGeometry y="20" width="160" height="307" as="geometry" />
        </mxCell>
        <mxCell id="77e6c97f196da883-8" value="创建账密" style="rounded=1;whiteSpace=wrap;html=1;shadow=0;labelBackgroundColor=none;strokeWidth=1;fontFamily=Verdana;fontSize=12;align=center;" parent="77e6c97f196da883-2" vertex="1">
          <mxGeometry x="20" y="65" width="100" height="60" as="geometry" />
        </mxCell>
        <mxCell id="77e6c97f196da883-26" style="edgeStyle=orthogonalEdgeStyle;rounded=1;html=1;labelBackgroundColor=none;startArrow=none;startFill=0;startSize=5;endArrow=classicThin;endFill=1;endSize=5;jettySize=auto;orthogonalLoop=1;strokeWidth=1;fontFamily=Verdana;fontSize=8" parent="77e6c97f196da883-1" source="77e6c97f196da883-8" target="77e6c97f196da883-11" edge="1">
          <mxGeometry relative="1" as="geometry" />
        </mxCell>
        <mxCell id="7OKBegjcIMa7sVDoLXa8-2" value="页面操作" style="edgeLabel;html=1;align=center;verticalAlign=middle;resizable=0;points=[];" vertex="1" connectable="0" parent="77e6c97f196da883-26">
          <mxGeometry relative="1" as="geometry">
            <mxPoint as="offset" />
          </mxGeometry>
        </mxCell>
        <mxCell id="77e6c97f196da883-3" value="账密管理系统" style="swimlane;html=1;startSize=20;dashed=1;swimlaneFillColor=#FFFFCC;fillColor=#dae8fc;strokeColor=#6c8ebf;fontSize=16;" parent="77e6c97f196da883-1" vertex="1">
          <mxGeometry x="160" y="20" width="160" height="307" as="geometry" />
        </mxCell>
        <mxCell id="77e6c97f196da883-11" value="生成账密的密文及token" style="rounded=1;whiteSpace=wrap;html=1;shadow=0;labelBackgroundColor=none;strokeWidth=1;fontFamily=Verdana;fontSize=12;align=center;" parent="77e6c97f196da883-3" vertex="1">
          <mxGeometry x="30" y="65" width="100" height="60" as="geometry" />
        </mxCell>
        <mxCell id="77e6c97f196da883-4" value="配置中心" style="swimlane;html=1;startSize=20;dashed=1;swimlaneFillColor=#FFFFCC;fillColor=#dae8fc;strokeColor=#6c8ebf;fontSize=16;" parent="77e6c97f196da883-1" vertex="1">
          <mxGeometry x="320" y="20" width="160" height="307" as="geometry" />
        </mxCell>
        <mxCell id="77e6c97f196da883-12" value="保存账密密文及token对应关系" style="rounded=1;whiteSpace=wrap;html=1;shadow=0;labelBackgroundColor=none;strokeWidth=1;fontFamily=Verdana;fontSize=12;align=center;" parent="77e6c97f196da883-4" vertex="1">
          <mxGeometry x="30" y="65" width="100" height="60" as="geometry" />
        </mxCell>
        <mxCell id="7OKBegjcIMa7sVDoLXa8-6" value="存储配置项，并设置为token类型" style="rounded=1;whiteSpace=wrap;html=1;shadow=0;labelBackgroundColor=none;strokeWidth=1;fontFamily=Verdana;fontSize=12;align=center;" vertex="1" parent="77e6c97f196da883-4">
          <mxGeometry x="30" y="180" width="100" height="60" as="geometry" />
        </mxCell>
        <mxCell id="77e6c97f196da883-5" value="产品团队开发/运维" style="swimlane;html=1;startSize=20;dashed=1;swimlaneFillColor=#FFFFCC;fillColor=#dae8fc;strokeColor=#6c8ebf;fontSize=16;" parent="77e6c97f196da883-1" vertex="1">
          <mxGeometry x="480" y="20" width="160" height="307" as="geometry" />
        </mxCell>
        <mxCell id="77e6c97f196da883-17" value="将token配置到对应的应用" style="rounded=1;whiteSpace=wrap;html=1;shadow=0;labelBackgroundColor=none;strokeWidth=1;fontFamily=Verdana;fontSize=12;align=center;" parent="77e6c97f196da883-5" vertex="1">
          <mxGeometry x="37" y="180" width="100" height="60" as="geometry" />
        </mxCell>
        <mxCell id="77e6c97f196da883-6" value="应用" style="swimlane;html=1;startSize=20;dashed=1;swimlaneFillColor=#FFFFCC;fillColor=#dae8fc;strokeColor=#6c8ebf;fontSize=16;" parent="77e6c97f196da883-1" vertex="1">
          <mxGeometry x="640" y="20" width="160" height="307" as="geometry" />
        </mxCell>
        <mxCell id="77e6c97f196da883-7" value="" style="swimlane;html=1;startSize=20;dashed=1;swimlaneFillColor=#FFFFCC;fillColor=#dae8fc;strokeColor=#6c8ebf;" parent="77e6c97f196da883-1" vertex="1">
          <mxGeometry x="800" y="20" width="160" height="307" as="geometry" />
        </mxCell>
        <mxCell id="7OKBegjcIMa7sVDoLXa8-101" value="账密管理态" style="rounded=1;whiteSpace=wrap;html=1;fontStyle=1;fontSize=18;textDirection=vertical-rl;" vertex="1" parent="77e6c97f196da883-7">
          <mxGeometry x="23" y="46" width="120" height="215" as="geometry" />
        </mxCell>
        <mxCell id="7OKBegjcIMa7sVDoLXa8-1" value="" style="edgeStyle=orthogonalEdgeStyle;rounded=0;orthogonalLoop=1;jettySize=auto;html=1;" edge="1" parent="77e6c97f196da883-1" source="77e6c97f196da883-11" target="77e6c97f196da883-12">
          <mxGeometry relative="1" as="geometry" />
        </mxCell>
        <mxCell id="7OKBegjcIMa7sVDoLXa8-3" value="接口调用" style="edgeLabel;html=1;align=center;verticalAlign=middle;resizable=0;points=[];" vertex="1" connectable="0" parent="7OKBegjcIMa7sVDoLXa8-1">
          <mxGeometry y="-1" relative="1" as="geometry">
            <mxPoint x="-4" y="-1" as="offset" />
          </mxGeometry>
        </mxCell>
        <mxCell id="7OKBegjcIMa7sVDoLXa8-4" style="edgeStyle=orthogonalEdgeStyle;rounded=0;orthogonalLoop=1;jettySize=auto;html=1;exitX=0.5;exitY=1;exitDx=0;exitDy=0;entryX=0.5;entryY=0;entryDx=0;entryDy=0;" edge="1" parent="77e6c97f196da883-1" source="77e6c97f196da883-8" target="77e6c97f196da883-17">
          <mxGeometry relative="1" as="geometry" />
        </mxCell>
        <mxCell id="7OKBegjcIMa7sVDoLXa8-5" value="将账密的token给到产品团队" style="edgeLabel;html=1;align=center;verticalAlign=middle;resizable=0;points=[];" vertex="1" connectable="0" parent="7OKBegjcIMa7sVDoLXa8-4">
          <mxGeometry x="-0.012" relative="1" as="geometry">
            <mxPoint as="offset" />
          </mxGeometry>
        </mxCell>
        <mxCell id="7OKBegjcIMa7sVDoLXa8-7" value="" style="edgeStyle=orthogonalEdgeStyle;rounded=0;orthogonalLoop=1;jettySize=auto;html=1;" edge="1" parent="77e6c97f196da883-1" source="77e6c97f196da883-17" target="7OKBegjcIMa7sVDoLXa8-6">
          <mxGeometry relative="1" as="geometry" />
        </mxCell>
        <mxCell id="7OKBegjcIMa7sVDoLXa8-8" value="页面操作" style="edgeLabel;html=1;align=center;verticalAlign=middle;resizable=0;points=[];" vertex="1" connectable="0" parent="7OKBegjcIMa7sVDoLXa8-7">
          <mxGeometry x="-0.1321" relative="1" as="geometry">
            <mxPoint as="offset" />
          </mxGeometry>
        </mxCell>
        <mxCell id="7OKBegjcIMa7sVDoLXa8-76" value="DBA" style="swimlane;html=1;startSize=20;dashed=1;fillColor=#dae8fc;strokeColor=#6c8ebf;swimlaneFillColor=#E6FFCC;fontSize=16;" vertex="1" parent="1">
          <mxGeometry x="70" y="354" width="160" height="524" as="geometry" />
        </mxCell>
        <mxCell id="7OKBegjcIMa7sVDoLXa8-78" value="账密管理系统" style="swimlane;html=1;startSize=20;dashed=1;fillColor=#dae8fc;strokeColor=#6c8ebf;swimlaneFillColor=#E6FFCC;fontSize=16;" vertex="1" parent="1">
          <mxGeometry x="230" y="354" width="160" height="526" as="geometry" />
        </mxCell>
        <mxCell id="7OKBegjcIMa7sVDoLXa8-80" value="配置中心" style="swimlane;html=1;startSize=20;dashed=1;fillColor=#dae8fc;strokeColor=#6c8ebf;swimlaneFillColor=#E6FFCC;fontSize=16;" vertex="1" parent="1">
          <mxGeometry x="390" y="354" width="160" height="526" as="geometry" />
        </mxCell>
        <mxCell id="7OKBegjcIMa7sVDoLXa8-82" value="将token替换为账密密文" style="rounded=1;whiteSpace=wrap;html=1;shadow=0;labelBackgroundColor=none;strokeWidth=1;fontFamily=Verdana;fontSize=12;align=center;" vertex="1" parent="7OKBegjcIMa7sVDoLXa8-80">
          <mxGeometry x="25" y="228" width="100" height="60" as="geometry" />
        </mxCell>
        <mxCell id="7OKBegjcIMa7sVDoLXa8-84" value="" style="edgeStyle=orthogonalEdgeStyle;rounded=0;orthogonalLoop=1;jettySize=auto;html=1;" edge="1" parent="7OKBegjcIMa7sVDoLXa8-80" source="7OKBegjcIMa7sVDoLXa8-85" target="7OKBegjcIMa7sVDoLXa8-87">
          <mxGeometry relative="1" as="geometry" />
        </mxCell>
        <mxCell id="7OKBegjcIMa7sVDoLXa8-85" value="查询应用相关配置" style="rounded=1;whiteSpace=wrap;html=1;shadow=0;labelBackgroundColor=none;strokeWidth=1;fontFamily=Verdana;fontSize=12;align=center;" vertex="1" parent="7OKBegjcIMa7sVDoLXa8-80">
          <mxGeometry x="25" y="34" width="100" height="60" as="geometry" />
        </mxCell>
        <mxCell id="7OKBegjcIMa7sVDoLXa8-86" value="是" style="edgeStyle=orthogonalEdgeStyle;rounded=0;orthogonalLoop=1;jettySize=auto;html=1;" edge="1" parent="7OKBegjcIMa7sVDoLXa8-80" source="7OKBegjcIMa7sVDoLXa8-87" target="7OKBegjcIMa7sVDoLXa8-82">
          <mxGeometry relative="1" as="geometry" />
        </mxCell>
        <mxCell id="7OKBegjcIMa7sVDoLXa8-87" value="判断是配置项中是否有token类型" style="rhombus;whiteSpace=wrap;html=1;rounded=0;shadow=0;labelBackgroundColor=none;strokeWidth=1;fontFamily=Verdana;fontSize=12;align=center;" vertex="1" parent="7OKBegjcIMa7sVDoLXa8-80">
          <mxGeometry x="5" y="107" width="140" height="99" as="geometry" />
        </mxCell>
        <mxCell id="7OKBegjcIMa7sVDoLXa8-88" value="产品团队开发/运维" style="swimlane;html=1;startSize=20;dashed=1;fillColor=#dae8fc;strokeColor=#6c8ebf;swimlaneFillColor=#E6FFCC;fontSize=16;" vertex="1" parent="1">
          <mxGeometry x="550" y="354" width="160" height="526" as="geometry" />
        </mxCell>
        <mxCell id="7OKBegjcIMa7sVDoLXa8-90" value="应用" style="swimlane;html=1;startSize=20;dashed=1;fillColor=#dae8fc;strokeColor=#6c8ebf;swimlaneFillColor=#E6FFCC;fontSize=16;" vertex="1" parent="1">
          <mxGeometry x="710" y="354" width="160" height="526" as="geometry" />
        </mxCell>
        <mxCell id="7OKBegjcIMa7sVDoLXa8-92" value="应用拿到账密密文" style="rounded=1;whiteSpace=wrap;html=1;shadow=0;labelBackgroundColor=none;strokeWidth=1;fontFamily=Verdana;fontSize=12;align=center;" vertex="1" parent="7OKBegjcIMa7sVDoLXa8-90">
          <mxGeometry x="30" y="228" width="100" height="60" as="geometry" />
        </mxCell>
        <mxCell id="7OKBegjcIMa7sVDoLXa8-93" value="" style="edgeStyle=orthogonalEdgeStyle;rounded=0;orthogonalLoop=1;jettySize=auto;html=1;" edge="1" parent="7OKBegjcIMa7sVDoLXa8-90" source="7OKBegjcIMa7sVDoLXa8-94" target="7OKBegjcIMa7sVDoLXa8-95">
          <mxGeometry relative="1" as="geometry" />
        </mxCell>
        <mxCell id="7OKBegjcIMa7sVDoLXa8-94" value="应用将密文解密为明文，连接数据库" style="rounded=1;whiteSpace=wrap;html=1;shadow=0;labelBackgroundColor=none;strokeWidth=1;fontFamily=Verdana;fontSize=12;align=center;" vertex="1" parent="7OKBegjcIMa7sVDoLXa8-90">
          <mxGeometry x="30" y="338" width="100" height="60" as="geometry" />
        </mxCell>
        <mxCell id="7OKBegjcIMa7sVDoLXa8-95" value="应用启动完成" style="rounded=1;whiteSpace=wrap;html=1;shadow=0;labelBackgroundColor=none;strokeWidth=1;fontFamily=Verdana;fontSize=12;align=center;" vertex="1" parent="7OKBegjcIMa7sVDoLXa8-90">
          <mxGeometry x="30" y="448" width="100" height="60" as="geometry" />
        </mxCell>
        <mxCell id="7OKBegjcIMa7sVDoLXa8-96" style="edgeStyle=orthogonalEdgeStyle;rounded=1;html=1;labelBackgroundColor=none;startArrow=none;startFill=0;startSize=5;endArrow=classicThin;endFill=1;endSize=5;jettySize=auto;orthogonalLoop=1;strokeWidth=1;fontFamily=Verdana;fontSize=8" edge="1" parent="7OKBegjcIMa7sVDoLXa8-90" source="7OKBegjcIMa7sVDoLXa8-92" target="7OKBegjcIMa7sVDoLXa8-94">
          <mxGeometry relative="1" as="geometry" />
        </mxCell>
        <mxCell id="7OKBegjcIMa7sVDoLXa8-91" value="应用启动，拉取配置" style="rounded=1;whiteSpace=wrap;html=1;shadow=0;labelBackgroundColor=none;strokeWidth=1;fontFamily=Verdana;fontSize=12;align=center;" vertex="1" parent="7OKBegjcIMa7sVDoLXa8-90">
          <mxGeometry x="30" y="34" width="100" height="60" as="geometry" />
        </mxCell>
        <mxCell id="7OKBegjcIMa7sVDoLXa8-97" value="" style="swimlane;html=1;startSize=20;dashed=1;fillColor=#dae8fc;strokeColor=#6c8ebf;swimlaneFillColor=#E6FFCC;" vertex="1" parent="1">
          <mxGeometry x="870" y="354" width="160" height="526" as="geometry" />
        </mxCell>
        <mxCell id="7OKBegjcIMa7sVDoLXa8-105" value="应用运行态" style="rounded=1;whiteSpace=wrap;html=1;fontStyle=1;fontSize=18;textDirection=vertical-rl;" vertex="1" parent="7OKBegjcIMa7sVDoLXa8-97">
          <mxGeometry x="23" y="155.5" width="120" height="215" as="geometry" />
        </mxCell>
        <mxCell id="7OKBegjcIMa7sVDoLXa8-98" style="edgeStyle=orthogonalEdgeStyle;rounded=0;orthogonalLoop=1;jettySize=auto;html=1;exitX=0;exitY=0.5;exitDx=0;exitDy=0;" edge="1" parent="1" source="7OKBegjcIMa7sVDoLXa8-91" target="7OKBegjcIMa7sVDoLXa8-85">
          <mxGeometry relative="1" as="geometry" />
        </mxCell>
        <mxCell id="7OKBegjcIMa7sVDoLXa8-99" value="SDK / API" style="edgeLabel;html=1;align=center;verticalAlign=middle;resizable=0;points=[];" vertex="1" connectable="0" parent="7OKBegjcIMa7sVDoLXa8-98">
          <mxGeometry x="-0.0044" y="4" relative="1" as="geometry">
            <mxPoint y="-4" as="offset" />
          </mxGeometry>
        </mxCell>
        <mxCell id="7OKBegjcIMa7sVDoLXa8-102" style="edgeStyle=orthogonalEdgeStyle;rounded=0;orthogonalLoop=1;jettySize=auto;html=1;exitX=1;exitY=0.5;exitDx=0;exitDy=0;entryX=0;entryY=0.5;entryDx=0;entryDy=0;" edge="1" parent="1" source="7OKBegjcIMa7sVDoLXa8-87" target="7OKBegjcIMa7sVDoLXa8-92">
          <mxGeometry relative="1" as="geometry">
            <Array as="points">
              <mxPoint x="588" y="511" />
              <mxPoint x="588" y="612" />
            </Array>
          </mxGeometry>
        </mxCell>
        <mxCell id="7OKBegjcIMa7sVDoLXa8-103" style="edgeStyle=orthogonalEdgeStyle;rounded=0;orthogonalLoop=1;jettySize=auto;html=1;exitX=1;exitY=0.5;exitDx=0;exitDy=0;" edge="1" parent="1" source="7OKBegjcIMa7sVDoLXa8-82" target="7OKBegjcIMa7sVDoLXa8-92">
          <mxGeometry relative="1" as="geometry" />
        </mxCell>
        <mxCell id="7OKBegjcIMa7sVDoLXa8-104" value="返回配置数据" style="edgeLabel;html=1;align=center;verticalAlign=middle;resizable=0;points=[];" vertex="1" connectable="0" parent="7OKBegjcIMa7sVDoLXa8-103">
          <mxGeometry x="0.0281" y="2" relative="1" as="geometry">
            <mxPoint as="offset" />
          </mxGeometry>
        </mxCell>
      </root>
    </mxGraphModel>
  </diagram>
</mxfile>
